<svg xmlns="http://www.w3.org/2000/svg" viewBox="0 0 50 50">
  <defs>
    <style>
      .cls-1 {
        fill: #f44f4e;
        opacity: 0;
      }

      .cls-2 {
        fill: #fff;
      }
    </style>
  </defs>
  <g id="Group_4511" data-name="Group 4511" transform="translate(16370 12173)">
    <circle id="Ellipse_324" data-name="Ellipse 324" class="cls-1" cx="25" cy="25" r="25" transform="translate(-16370 -12173)"/>
    <path id="Subtraction_206" data-name="Subtraction 206" class="cls-2" d="M16.274,19.644h-.14A22.054,22.054,0,0,1,7.4,17.533a21.7,21.7,0,0,1-4.719-3.065A8.365,8.365,0,0,1,.723,11.739,8.343,8.343,0,0,1,11.509.624a9.808,9.808,0,0,1,3.4,2.183c.671.622,1.585,1.623,2.553,2.683.536.587,1.091,1.194,1.65,1.788a22.688,22.688,0,0,0,5,4.175,16.924,16.924,0,0,0,6.127,1.727l.115.013a.459.459,0,0,1,.416.418c0,.011,0,.025,0,.042a.585.585,0,0,1-.209.513l-.08.07a21.626,21.626,0,0,1-6.921,4.2A20.142,20.142,0,0,1,16.274,19.644ZM8.658,3.149c.089,0,.171,0,.25,0l.193,0a5.084,5.084,0,0,1,2.2.678,7.241,7.241,0,0,1,1.243,1c.028.028.046.046.054.052a.107.107,0,0,0,.064.022.059.059,0,0,0,.05-.022.069.069,0,0,0,0-.064,4.263,4.263,0,0,0-.984-1.439A3.844,3.844,0,0,0,9.115,2.32H9.1A4.049,4.049,0,0,0,6.82,3a3.059,3.059,0,0,0-.9.9.071.071,0,0,0,.01.06.067.067,0,0,0,.054.02.234.234,0,0,0,.1-.025,2.117,2.117,0,0,0,.27-.151,3.919,3.919,0,0,1,1.115-.5A4.4,4.4,0,0,1,8.658,3.149Z" transform="translate(-16358.564 -12157.422)"/>
  </g>
</svg>
